<svg width="16" height="16" viewBox="0 0 16 16" fill="none" xmlns="http://www.w3.org/2000/svg">
<path class="icons" fill-rule="evenodd" clip-rule="evenodd" d="M4 16C1.944 16 0 14.056 0 12V4C0 1.944 1.944 0 4 0H12C14.056 0 16 1.944 16 4V12C16 14.056 14.056 16 12 16H4ZM4 2C3.065 2 2 3.065 2 4V12C2 12.953 3.047 14 4 14H12C12.935 14 14 12.935 14 12V4C14 3.065 12.935 2 12 2H4ZM12.6388 4.63882C13.0137 4.26392 13.0137 3.65608 12.6388 3.28118C12.2639 2.90627 11.6561 2.90627 11.2812 3.28118C10.9063 3.65608 10.9063 4.26392 11.2812 4.63882C11.6561 5.01373 12.2639 5.01373 12.6388 4.63882ZM8 12C5.794 12 4 10.206 4 8C4 5.794 5.794 4 8 4C10.206 4 12 5.794 12 8C12 10.206 10.206 12 8 12ZM6 8C6 6.897 6.897 6 8 6C9.103 6 10 6.897 10 8C10 9.103 9.103 10 8 10C6.897 10 6 9.103 6 8Z" fill="white"/>
</svg>
