<svg width="22" height="19" viewBox="0 0 22 19" xmlns="http://www.w3.org/2000/svg">
<path class="cart" d="M20.6312 13.4508H6.67421L7.37499 12.0234L19.0187 12.0023C19.4125 12.0023 19.75 11.7211 19.8203 11.332L21.4328 2.30625C21.475 2.06953 21.4117 1.82578 21.257 1.64062C21.1806 1.5495 21.0852 1.4761 20.9776 1.42551C20.8699 1.37492 20.7525 1.34835 20.6336 1.34766L5.82109 1.29844L5.69452 0.703125C5.61484 0.323437 5.27265 0.046875 4.88359 0.046875H1.26249C1.04307 0.046875 0.832631 0.134041 0.677474 0.289198C0.522316 0.444355 0.43515 0.654794 0.43515 0.874219C0.43515 1.09364 0.522316 1.30408 0.677474 1.45924C0.832631 1.6144 1.04307 1.70156 1.26249 1.70156H4.21327L4.7664 4.33125L6.12812 10.9242L4.37499 13.7859C4.28395 13.9088 4.22912 14.0547 4.21669 14.2071C4.20426 14.3596 4.23474 14.5124 4.30468 14.6484C4.44531 14.9273 4.7289 15.1031 5.04296 15.1031H6.51484C6.20105 15.5199 6.03157 16.0275 6.03202 16.5492C6.03202 17.8758 7.11015 18.9539 8.43671 18.9539C9.76327 18.9539 10.8414 17.8758 10.8414 16.5492C10.8414 16.0266 10.668 15.518 10.3586 15.1031H14.1344C13.8206 15.5199 13.6511 16.0275 13.6516 16.5492C13.6516 17.8758 14.7297 18.9539 16.0562 18.9539C17.3828 18.9539 18.4609 17.8758 18.4609 16.5492C18.4609 16.0266 18.2875 15.518 17.9781 15.1031H20.6336C21.0883 15.1031 21.4609 14.7328 21.4609 14.2758C21.4596 14.0566 21.3716 13.8468 21.2161 13.6923C21.0607 13.5377 20.8504 13.4509 20.6312 13.4508ZM6.16562 2.92969L19.6609 2.97422L18.3391 10.3758L7.73827 10.3945L6.16562 2.92969ZM8.43671 17.2898C8.0289 17.2898 7.69609 16.957 7.69609 16.5492C7.69609 16.1414 8.0289 15.8086 8.43671 15.8086C8.84452 15.8086 9.17734 16.1414 9.17734 16.5492C9.17734 16.7456 9.09931 16.934 8.96041 17.0729C8.82152 17.2118 8.63314 17.2898 8.43671 17.2898ZM16.0562 17.2898C15.6484 17.2898 15.3156 16.957 15.3156 16.5492C15.3156 16.1414 15.6484 15.8086 16.0562 15.8086C16.4641 15.8086 16.7969 16.1414 16.7969 16.5492C16.7969 16.7456 16.7188 16.934 16.5799 17.0729C16.441 17.2118 16.2527 17.2898 16.0562 17.2898Z" fill="white"/>
</svg>
