<svg width="20" height="20" viewBox="0 0 20 20" fill="none" xmlns="http://www.w3.org/2000/svg">
<path d="M18.3906 0.953065H13.5578C13.15 0.953065 12.7867 1.23197 12.6906 1.63978C12.3977 2.87728 11.2891 3.76557 10 3.76557C8.71094 3.76557 7.60234 2.87728 7.30938 1.63978C7.26367 1.44418 7.15307 1.26982 6.9956 1.14512C6.83812 1.02042 6.64306 0.952722 6.44219 0.953065H1.60938C1.33587 0.953065 1.07357 1.06171 0.880171 1.25511C0.686774 1.44851 0.578125 1.71081 0.578125 1.98432V7.89057C0.578125 8.16407 0.686774 8.42637 0.880171 8.61977C1.07357 8.81317 1.33587 8.92182 1.60938 8.92182H3.36719V18.0156C3.36719 18.2891 3.47584 18.5514 3.66923 18.7448C3.86263 18.9382 4.12493 19.0468 4.39844 19.0468H15.6016C15.8751 19.0468 16.1374 18.9382 16.3308 18.7448C16.5242 18.5514 16.6328 18.2891 16.6328 18.0156V8.92182H18.3906C18.6641 8.92182 18.9264 8.81317 19.1198 8.61977C19.3132 8.42637 19.4219 8.16407 19.4219 7.89057V1.98432C19.4219 1.71081 19.3132 1.44851 19.1198 1.25511C18.9264 1.06171 18.6641 0.953065 18.3906 0.953065ZM17.7344 7.23432H14.9453V17.3593H5.05469V7.23432H2.26562V2.64057H5.85859C6.51953 4.30932 8.14375 5.45307 10 5.45307C11.8562 5.45307 13.4805 4.30932 14.1414 2.64057H17.7344V7.23432Z" fill="white"/>
</svg>
