<svg width="28" height="28" viewBox="0 0 28 28" fill="none" xmlns="http://www.w3.org/2000/svg">
<path class="delete" d="M20.6667 6.00002H27.3334V8.66669H24.6667V26C24.6667 26.3536 24.5262 26.6928 24.2762 26.9428C24.0261 27.1929 23.687 27.3334 23.3334 27.3334H4.66669C4.31307 27.3334 3.97393 27.1929 3.72388 26.9428C3.47383 26.6928 3.33335 26.3536 3.33335 26V8.66669H0.666687V6.00002H7.33335V2.00002C7.33335 1.6464 7.47383 1.30726 7.72388 1.05721C7.97393 0.807163 8.31307 0.666687 8.66669 0.666687H19.3334C19.687 0.666687 20.0261 0.807163 20.2762 1.05721C20.5262 1.30726 20.6667 1.6464 20.6667 2.00002V6.00002ZM22 8.66669H6.00002V24.6667H22V8.66669ZM10 12.6667H12.6667V20.6667H10V12.6667ZM15.3334 12.6667H18V20.6667H15.3334V12.6667ZM10 3.33335V6.00002H18V3.33335H10Z" fill="#383C43"/>
</svg>
