<svg width="67" height="24" viewBox="0 0 67 24" fill="none" xmlns="http://www.w3.org/2000/svg">
<path class="logocolor" d="M5.63918 24V5.31429L1.70884 6.68572L0 2.74286L6.32272 0H11.791V24H5.63918Z" fill="white"/>
<path class="logocolor" d="M19.4902 24V5.31429L15.5598 6.68572L13.851 2.74286L20.1737 0H25.642V24H19.4902Z" fill="white"/>
<path class="logocolor" d="M46.841 7.54286C46.841 9.48571 46.0207 11.1657 44.3803 12.5829C43.879 13.0171 43.3322 13.4514 42.7398 13.8857L35.3917 19.2H46.841V24H28.3855V17.4857L40.6892 8.57143V6.85714C40.6892 5.48571 40.0056 4.8 38.6385 4.8H29.069V0H40.0056C42.398 0 44.1296 0.548572 45.2005 1.64572C46.2942 2.72 46.841 4.45714 46.841 6.85714V7.54286Z" fill="white"/>
<path class="logocolor" d="M67 7.54286C67 9.48571 66.1797 11.1657 64.5393 12.5829C64.038 13.0171 63.4912 13.4514 62.8988 13.8857L55.5507 19.2H67V24H48.5445V17.4857L60.8482 8.57143V6.85714C60.8482 5.48571 60.1646 4.8 58.7976 4.8H49.228V0H60.1646C62.557 0 64.2886 0.548572 65.3595 1.64572C66.4532 2.72 67 4.45714 67 6.85714V7.54286Z" fill="white"/>
</svg>
